<mxfile host="65bd71144e">
    <diagram id="GsSA5lZTtisRIyWnG8TX" name="Page-1">
        <mxGraphModel dx="2540" dy="1087" grid="0" gridSize="10" guides="1" tooltips="1" connect="1" arrows="1" fold="1" page="1" pageScale="1" pageWidth="1169" pageHeight="827" background="#CCFFFF" math="0" shadow="0">
            <root>
                <mxCell id="0"/>
                <mxCell id="1" parent="0"/>
                <mxCell id="43" style="edgeStyle=none;html=1;exitX=0.25;exitY=1;exitDx=0;exitDy=0;entryX=0.5;entryY=0;entryDx=0;entryDy=0;fontSize=17;strokeColor=#050505;" edge="1" parent="1" source="46" target="53">
                    <mxGeometry relative="1" as="geometry"/>
                </mxCell>
                <mxCell id="45" style="edgeStyle=none;html=1;exitX=1;exitY=0.5;exitDx=0;exitDy=0;entryX=0;entryY=0.75;entryDx=0;entryDy=0;fontSize=17;strokeColor=#050505;" edge="1" parent="1" source="46" target="80">
                    <mxGeometry relative="1" as="geometry"/>
                </mxCell>
                <mxCell id="46" value="&lt;font style=&quot;font-size: 17px&quot;&gt;Index.js&lt;/font&gt;" style="rounded=1;whiteSpace=wrap;html=1;fillColor=#6d8764;fontColor=#ffffff;strokeColor=#3A5431;" vertex="1" parent="1">
                    <mxGeometry x="511" y="127" width="120" height="60" as="geometry"/>
                </mxCell>
                <mxCell id="49" value="&lt;font style=&quot;font-size: 17px&quot;&gt;Page 3&lt;/font&gt;" style="rounded=1;whiteSpace=wrap;html=1;fillColor=#fa6800;fontColor=#000000;strokeColor=#C73500;" vertex="1" parent="1">
                    <mxGeometry x="-236" y="382" width="120" height="60" as="geometry"/>
                </mxCell>
                <mxCell id="51" value="&lt;font style=&quot;font-size: 17px&quot;&gt;Page 2&lt;/font&gt;" style="rounded=1;whiteSpace=wrap;html=1;fillColor=#fa6800;fontColor=#000000;strokeColor=#C73500;" vertex="1" parent="1">
                    <mxGeometry x="-422" y="386" width="120" height="60" as="geometry"/>
                </mxCell>
                <mxCell id="53" value="&lt;font style=&quot;font-size: 17px&quot;&gt;Page 1&lt;/font&gt;" style="rounded=1;whiteSpace=wrap;html=1;fillColor=#fa6800;fontColor=#000000;strokeColor=#C73500;" vertex="1" parent="1">
                    <mxGeometry x="321" y="286" width="120" height="60" as="geometry"/>
                </mxCell>
                <mxCell id="54" value="Each page is a component" style="whiteSpace=wrap;html=1;aspect=fixed;fontSize=17;" vertex="1" parent="1">
                    <mxGeometry x="795" y="271" width="80" height="80" as="geometry"/>
                </mxCell>
                <mxCell id="58" value="&lt;font style=&quot;font-size: 17px&quot;&gt;MusicGenerator&lt;/font&gt;" style="rounded=1;whiteSpace=wrap;html=1;fillColor=#0050ef;fontColor=#ffffff;strokeColor=#001DBC;" vertex="1" parent="1">
                    <mxGeometry x="-790" y="520" width="120" height="60" as="geometry"/>
                </mxCell>
                <mxCell id="60" value="&lt;font style=&quot;font-size: 17px&quot;&gt;SelectData&lt;/font&gt;" style="rounded=1;whiteSpace=wrap;html=1;fillColor=#0050ef;fontColor=#ffffff;strokeColor=#001DBC;" vertex="1" parent="1">
                    <mxGeometry x="-928" y="513" width="120" height="60" as="geometry"/>
                </mxCell>
                <mxCell id="61" value="&lt;font style=&quot;font-size: 17px&quot;&gt;Title&lt;/font&gt;" style="rounded=1;whiteSpace=wrap;html=1;fillColor=#0050ef;fontColor=#ffffff;strokeColor=#001DBC;" vertex="1" parent="1">
                    <mxGeometry x="-596" y="463" width="120" height="60" as="geometry"/>
                </mxCell>
                <mxCell id="63" value="&lt;font style=&quot;font-size: 17px&quot;&gt;&amp;nbsp;Search Bar&lt;/font&gt;" style="rounded=1;whiteSpace=wrap;html=1;fillColor=#0050ef;fontColor=#ffffff;strokeColor=#001DBC;" vertex="1" parent="1">
                    <mxGeometry x="-1074" y="511" width="120" height="64" as="geometry"/>
                </mxCell>
                <mxCell id="64" value="All elements on the page are their own components" style="whiteSpace=wrap;html=1;aspect=fixed;fontSize=17;" vertex="1" parent="1">
                    <mxGeometry x="819" y="436" width="114" height="114" as="geometry"/>
                </mxCell>
                <mxCell id="66" value="The musicgenerator will be in App as it is glabal accoss the whole app and stays in the same place" style="whiteSpace=wrap;html=1;aspect=fixed;fontSize=17;" vertex="1" parent="1">
                    <mxGeometry x="916" y="98" width="157" height="157" as="geometry"/>
                </mxCell>
                <mxCell id="71" value="&lt;font style=&quot;font-size: 17px&quot;&gt;SearchResults&lt;/font&gt;" style="rounded=1;whiteSpace=wrap;html=1;fillColor=#0050ef;fontColor=#ffffff;strokeColor=#001DBC;" vertex="1" parent="1">
                    <mxGeometry x="-428.5" y="466.5" width="120" height="60" as="geometry"/>
                </mxCell>
                <mxCell id="78" value="&lt;font style=&quot;font-size: 17px&quot;&gt;NotesInput&lt;/font&gt;" style="rounded=1;whiteSpace=wrap;html=1;fillColor=#0050ef;fontColor=#ffffff;strokeColor=#001DBC;" vertex="1" parent="1">
                    <mxGeometry x="-230" y="461.5" width="120" height="60" as="geometry"/>
                </mxCell>
                <mxCell id="79" value="&lt;font style=&quot;font-size: 17px&quot;&gt;AddNoteButton&lt;/font&gt;" style="rounded=1;whiteSpace=wrap;html=1;fillColor=#0050ef;fontColor=#ffffff;strokeColor=#001DBC;" vertex="1" parent="1">
                    <mxGeometry x="-230" y="546.5" width="120" height="60" as="geometry"/>
                </mxCell>
                <mxCell id="80" value="React router will be in the index.js. This will create the different paths (pages) which will take the components and display them" style="whiteSpace=wrap;html=1;aspect=fixed;fontSize=17;" vertex="1" parent="1">
                    <mxGeometry x="677" y="35" width="162" height="162" as="geometry"/>
                </mxCell>
                <mxCell id="81" value="" style="shape=image;verticalLabelPosition=bottom;labelBackgroundColor=#ffffff;verticalAlign=top;aspect=fixed;imageAspect=0;image=data:image/png,iVBORw0KGgoAAAANSUhEUgAAA2MAAADCCAYAAADEmRrfAAAAAXNSR0IArs4c6QAAAARnQU1BAACxjwv8YQUAAAAJcEhZcwAAFiUAABYlAUlSJPAAAEf8SURBVHhe7d0FmFRlFwfwI6KUKCWi0kiLIAgs3d3dIC3d3SHdKEhJKyld0r2kNNII6qeEEhIq4Hf/Z+eOs7MzG7Oze2fX/+955tnZ2ZmdmXvv+973vHHuS38+uvWPEBERERERUaSKYftJREREREREkYjBGBERERERkQUYjBEREREREVmAwRgREREREZEFGIwRERERERFZgMEYERERERGRBRiMERERERERWYDBGBERERERkQUYjBEREREREVmAwRgREREREZEFGIwRERERERFZgMEYERERERGRBRiMERERERERWYDBGBERERERkQUYjBEREREREVmAwRgREREREZEFXrp0eu0/tvtERERERETkRSnT+tnuBfXSn49uMRgjIiIiIiLyshtX/YMNxjhNkYiIiIiIyAIMxoiIiIiIiCzAYIyIiIiIiMgCDMaIiIiIiIgswGCMiIiIiIjIAgzGiIiIiIiILMBgjIiIiIiIyAIMxoiIiIiIiCzAYIyIiIiIiMgCDMaIiIiIiIgswGCMiIiIiIjIAgzGiIiIiIiILMBgjIiIiIiIyAIMxoiIiIiIiCzAYIyIiIiIiMgCDMaIiIiIiIgswGCMiIiIiIjIAgzGiIiIiIiILMBgjIiIiIiIyAIMxoiIiIiIiCzAYIyIiIiIiMgCDMaIiIiIiIgswGCMiIiIiIjIAgzGiIiIiIiILMBgjIiIiIiIyAIMxoiIiIiIiCzAYIyIiIiIiMgCDMaIiIiIiIgswGCMiIiIiIjIAgzGiIiIiIiILMBgjIiIiIiIyAIMxoiIiIiIiCzAYIyIiIiIiMgCDMaIiIiIiIgswGCMiIiIiIjIAgzGiIiIiIiILMBgjIiIiIiIyAIMxoiIiIiIiCzAYIyIiIiIiMgCDMaIiIiIiIgswGCMiIiIiIjIAgzGiIiIiIiILMBgjIiIiIiIyAIMxoiIiIiIiCzAYIyIiIiIiMgCDMaIiIiIiIgswGCMiIiIiIjIAgzGiIiIiIiILMBgjIiIiIiIyAIMxoiIiIiIiCzAYIyIiIiIiMgCDMaIiIiIiIgswGCMiIiIiIjIAgzGiIiIiIiILMBgjIiIiIiIyAIMxsin3f3tdznof0R/Ev3XPXr0WA4cPCw///w/2yPk7Nat2zJg0KfBbiP8Dc/Bc4mIiKzEYIx81i+//CqNGreSoiUqSJt2XeTOnbu2vxD99yAQ69y1txQrWVHq1G8mly9ftf2FTAiuOnfrI9NnzJGV36yVFy9e2P7yLzy2fMVqGTNusrTt0J0BGRERWYrBmMXQy92iVQdtOFBgt43g64ebN/X+tWs/yG+/+97o2P/+94sMHjpK+vQbIk+ePLU9Sr4Mo6wVq9SRWPGSSqGi5eT69Ru2v/wL+7J9xx76HJRRX/DgwQP54UZAeTh85Jjcun1H7/uS58+fy4aNW6R+oxZy6PAx26ORA8HqpyPHaV3au2cXafNJc4kRI+gpDo+1aN5EPmnVVNat36SvwWuJiIiswGDMYrt275WFi5fKX3//bXuETO+lSyu1a1aTZMnekob1a0vaNKltf/Ed14yG/MjRE+Thwz9sj1BUgqBmzdoN8s8//9ge8V1Jk74ptWzloVPHNpL9g/dtf/Edf/31t2zavE0DIgRmkQX7b8mylfLFzLkaZLVp3Vxixoxp+2tQ8eLFlX59ukuliuX0NXhtVDgGiIgo+mEwRj4rTpzYMmhAL/nhymltfAbXuCIKq/feSyuFC+WXLd/ukF9/vWV71He9/PLL0rJ5Yy0PY0YO0YCCApw5e16mTJ0heXLn0hGx0GwbBLeoXzJlzKCvxf8gIiKKbAzGiOg/KW6cONKwQR05e/572bRlm+1Rimr+/PMvWfTVMvn+wkX5uEl9yZghve0vIcuSOaM0qF9LX4v/gf9FREQUmXw+GMNia/9DR+WTtl0kfeacuoYj24f5pWefQXoCdTW15NmzZ7Jz115dt/B28oz6mrz5S+janh9+CFhz4chcQ4Ib7v/440/So/dA+/uVq1BTVq/ZoP/XFfMztmnXVT8bXmO+Z6OPW8vFS5dtzxS9n9uvmP05Q4aN1sc/btbG/pjjzVvrVUaMGm//f1gPM3P2fF0vg8fwmceOnyK//X7P9uzAbt++o9N4GjRuad8m+Infd+/ZF2iRPPbH5CnT9TktW3d0uxYD0/qatWinz5s7f7Ht0cDreRxv5r4JDt771OmzgY4VVzdsC0dh+X6Oa4lwQzIFmDVnviRIktL+uHlzfi8TkpFgm+MYwfPwfvjcOI4c3y+q+XrpymC/t/l3bENXa+ywj6d/MUfLXJJkafW5KMNlyleXGTPn6jQ4V3CczZw1T0qVrWp/Dcr/t1t3BNvAzpwpo+TPl0c2bd4qv99zffw7e/DwoT4fx7dZ3vF+1Wo2lFWr1wd5P9QdeE75irU0KY0rmNKH7H54HuoEc4qf8/Fm3lCHONYr7qC+Q13pWC8535z3Beq5o8e+0/qycLGAOgI33Mcx65xIB3WK+RyUAZQFQNkwHzdv7j43jnmUNcc6G/sSx0JI5f7K1WuyefM2KVqkoJQrU1Jeeukl219ChtFGTIXGiBr+B/5XaGA9XIHCZfQW2WvjiIgoevHpYAzBQZdufaRI8fLaYL9x40d9/OLFy9rg795zQJAAAr9369FPylaooesWzKQPJ06e1rU9JctW0caRqyDuxfMXsssI4spVqiVTpn5hf78du/ZIi9YdZMU3a4K8Dg2XScZnqViltnw5b5F+NhPec9nyVUbj5TfbI9ZDoNm8VXvp0KmHrpcBfOb+A4fLkKEjgwRPaAg1NYKmJk3byIqVa+zbBD/xe+ly1WXCpM/tgSoaQsWLF9EpYAf8D8vVa9f1cWcIpLfv3KONoGJFCtke9Rz2y9Ll30jxUpX0WEmUMKGUKFZEUqZMbnuGSIYM70nJEkUlwRtv2B4J+/fzhuPfndSGO7b54ydP9DPh8+Jz4zjC8eTN94sq0EivWbuRZsNDmTPX4aEM79q9T06fOedyHRL2FQLnDp17yvUfbuh+T58+rZb/SlXrSt8BQ912CiRI8LqULlVc1qzdKLt377c96h6Clr79hkrVGg1kwaIl9vKOz7hx07dSt0Ez6dl7QKD3y5snlxQpXMA43nfL2XPf2x4N7ObNn/Q7Yj1Y+XKlNEgIr717D2h9h7oScJyhDJhQNrCtkiRJHCiAWW4c9wgyUF86Bhq4j2MWxy7Kr7dgm44YNUHLGoLnLFkyamB15sx5PRZwTAQXeG7btlM/D17z9tvJbI+GXooU7+pr8T/wv0Jy/8EDo4xO04AVt9lG8Onu+CIiIgqJzwZj6F0ePXaSLq5GA2LunGny263r8uejW/Lw95/k6KFdkvujnBIjxr+NCA2MJk/T16C3e+umVfLo/s/y9I9f5eK5Y9KiWWNtuA0aMtLl+gA0ltAzGztWLNmwdpm+Fu/Zv28PbRgu/mp5kF7a706ckslG4JYmdSpZt3qJfjZ8Rrznrf9dlsMHdwRqAGVI/54c8d+pz8ENaxZg3pfT7Y853vA9vAkjdWjwjBoxWG7/ckWePPxFVq9crA2zxV8vl5Onztie+a/0RmC17Ot5cv3yKX0+Phe2y7TPxkv8+K/JjFlzAzUykWgjv18eTb290wi4nCFwOnDgkI4SoBGExpApcaKEsn7NUvv337ltve0vwTv//UUZOWqiJEyYQL/PwX1bZeP65XL88B7p0a2jPgcJD75ePEfatmmhv5vC8v2wju2zKWODfL6WzZvIvTs37I+bt769u+nfTbi+ETIv/vLrr/LVwtly8tg+Pdb892+T/Xu26EgNRpXQMP8vQXlHucUoS5dObeXapZNahrANUaauXjwhrVs1lVdffcX2igAYpRoybJTs239QJo4bIWdO+Ot+37Nzk3x/5oiUK1tKPvt8ZrAJGtAZgE4BZAEMTaM6ceJEMnvmVK1TUEeYn3HlsgX2crRn77+BHdYmFcjvp/c3f7vd5egeOm7QOVKiWGFdw2RyPt5OnzggH2TLavureyhbI0dPlN9/vydfTJsoR/136XGGn9hOOK5Tp0opM6ZPlMEDe0vs2LFsrxR59ZVXtF5CGTKPaZQLvDe2Jz7ngoVL7N8DdZT5+fB8lAVA2TAfN2+o+1AHmrBPvlqyXIZ9OkYa1KslZ0/6y/Zv18qWjd/I5Qvfad2LY2L0mEm6r52hXsa2g0IF8oVpVMyEwBcBM+B/hZSMJ+bLMeW1ePFsv4nEfz0+17MSEZHHfDYYO3DwkMz5MqBxM23KOKlft6Z9UTYaZNnez6INhoQJEuhjgAbz10tXaGNl+ucTpHDhAnqSxAk6VaoUMmbUUGnetJH2gK7fsNll4wyNsoXzZ2gvMl6L92zUoI4+job03buBp+hcvnJNGz6lShaT4kZDymws4j3feP11DQCSGI03X4FGGBp3nTu2kdfjx9c0z8WLFdGsYmiEOI9kITiaOH6kVKlcXnudzVTR2C4N69eRxo3qaYB77vwFfRzwtwrly+j9fQf8g0z/QkC7bcdu/SzYZt4YBdhvBHfYr3Vr19CRDvNz4j0QhGP/nTc+I1LRO/Lk+3kKx9s3q9ZpoNW+TUupXq2S/f1wvHyU60Pp1qW97geM3rqaxhcW7qa4ubqFdtpbRPnj0SMdZUqTJpXUM8r6O++8bW9Yo0y9++47WuadjxWMZq1Zt1H3U3NjP8eK9artL6L/q1+fbjrahO3pbrobOgNQ3letWW8fLXYHwdGQQX20TkCdYjbC8RlxzGO/Yv+hk8aEz4zRLnwOf/8jQS5GjP20bfsuvV+oUH49ZsMLdSE6lyob5bpm9Sr27YKf9erV1HK3Z+8Bl9O2a1SvrJ0IOT/Mrt8XcJwiiDK3J6YDP/wj/BlEUbYWLV6q5XNg/17y1ltJbX8JKIPt27XUsol9jJEyZwg2UWfhs3oyKmZKnz6dvJ81s/4v/M/g4HPh3NOqxcd669qpbaDjjoiIKCx8MhjDVKQdOwOmKaFBnD9/XttfgrfbaOTi5F62TElJ/14626P/wkkUDQ1AY8K5pxWNjGFD+gbqmQb0fL7xxus6mnb3buAGXdI3k+jPrdt2Ron1Pmjso3Hm2IOMhoQZMN6wXccoNBxf5yxH9mzawMLUJueL0542tv1B/8PaIMyRI5vt0fC5fTvgwq1ZsmQK0mAPbv8FJ7jv5wkcb/sPHtIpnJjK6bgPTJkzZwhoFF69Lo+MAOW/AqMxKEu4nhwuyBua9VsYmdmz74DWExXKlXbZIMaIddbMmVx2pJjMYClevHiybsNmj5M4YH8mdQgmHGGfY/QFwZ45kmO6dv0H2bvvoJYXb0zZBfMaZHhf5+AudqzYxrZ+U+/f/Oln/RlaKEdmnecNp8+c1ZEv5xFyE6YUZ3s/q8uOIrhj7FNcXgKjlQkS/tsxF1aJEyWSt5Im1WsbYhpiSJInf1emTh6jN9wnIiLylE8GY+glv3wloAFfsIBfqEZO0DAzGxauGuQmnPAxcoYRkvv3Ap900chAj3xY+OXNrde1QXBXonRlXXSORAJYm+VuWpSVUhuN07BOqcH3wKjJtOmzdZpjhcq17TckZHDFHG3AqOHGTVvta33wEz3yaFwVzO8XaGQzPMxpQ+fOfR9kXdHDBw/l/v0H2nv+VtKARqgjT76fJ+7cvqsXGEYa9c5dewd6H/PWtn03vbDv7Tt37OsdPeU8xS24m/P0sciGgKFpkwY6Eo4kEVnez6vbaM+e/W5HCB89fiSXLl3R+5iq6Gp7Yi0ZRqlCCsSzGAFb6ZLF9CLAZ86esz3qHoI7rPFDEg/H98M0aVdwnGOKHzhPhzx0+KiO6vr55Q5z/eNO/NcCygM6QlDWHD3986kRrN3Wbe7u2n34fEhSgim1jt8PSYoQPHqLOeK8eu0GqVytXqD3wg2Je5atWKXPcdVR9PTpn1rHpDACojixA0bxPPFSjBgS4+UYLrcXERFRRPLJYOzZs+f2E2KcOHH0Z0jQAH/y+Intt5ChsYFGSXhhtG3UiCEydfJYHdHYt99fEwmky/ihlCxTRUf4onJ2PGwnrLHLliO/dOneVxOSYEqVeXNMWOIIwTCmbqLBd+jQUc1YCLdu3Zb9B/x19LGk8XdvKWZba4O1QVgTZ25zHEfTZ36pIxK5cuYI0tj19Pt54vmL57quEZ8Jx4nj+5g3PP5fbQxiit6qFYv1At9/P/tbps/4UkqVqyZp02eXgYNHBMni9+LFP/ZEJxiBdbU9MSU0NEEtynGd2tV1itr6DVvcJlDB48jw90HOApr9Ekk8HN/PedTLUYH8ebUj6PCR4xpwA/Y1Em2gnJQ3gjXnNXGeQscDRpvWGsElEg+Zo334uWjRUk1YUqRwQSMYS6WPO8IIf9ESFTRJCZLXOH4/bx+f5nZGOXN8H8ebN8sgERGRr/HJYMzRC6dRDncwRejll0P+OhgFQUMdiR7ivxb+tRmAEYhWLZrIoQPb5cSxvbogHkk70HCpXe9j7dn1xVGy0MBnRyIVNCIdE5SYNzMBiSuYcoepiI5Z5NBo3r1nv5QoUUTSpU2jj3kDkhH45f1Ip6miEZmvYClNJZ4zT2EdrUCSgY4dWtvXwJjC8/08hfdCMgTH93G+WT1SZRV0aMyZ9Zlc+v64JsSoXKmcBmbYR5+066rBvCuukkU430JKhpMrVw49XhEA3LgZkFXTGaYTDhj8qdYfjkmFzBsS8biTKmVKDTgxCoY1joD7yCrqzSm7gKQhhQrm18AJQeNHfkV1pAk/u/caoPVTl45t5E2nKYcYZRo6bLSO9DsnUsEttAlEwgrlzHE7uro5J8MBdPogkL3540/y5Gn4O9dw/CVOnND2GxERUcTzyWAsXty4RkM9YPrMseMnQhXIIBsYFvmDq6lqJkxrwpSl5MZzX/NSMGbC9D9kw+vTq6scPrBDhg7uq40hV1kYnf3xh++tDzJ77aFfn+6aGCMsPfeOU7OQRQ7/D2t8oHjRQl5d9L5+4xaZt+Arad3yY53uhtEQBIFIGT98aH9ZvmR+kOAmvN/P0ePHj92OppgSJ06sCQowzSsyLndgZQIPvLdzGUQ5xpTR0MCxU7FCWc1yiUAL66kwhRCBiwkXbUYQDuZIU3iYxytGUXGJC2f4PuZaViTqqFenho6ohRaO90rGd0LwsMM4NrEuzswq6s0pu4BEIbjeF0b72rVtqY8hyIRORhC2fvVSKVgwn/7uyEz8gaQZvXp2DpRIJayePAl5pkIa2zTJn3/+xe101OBgTSfWB9+9+5vcCyHxRnCwnhDTh7Fv4sQO3WwMIiIib/DJYAyBVY4cH+j9Fd+slQsXL+n9kCDVPU6mm7dsk0uXA9aSOEICBVyUFbyVtcwdjMBUq1pRe5Exver+vfu2vwT2pm0h/fnvL3icOCCi/PX33/ZEAK62FfaL2cPvTt48H+n0wSNGAxfX5Dly5Lhe2wiZA70FjeOtW3dorzYankjlfen8ce1Nx2glUtvjWkrOvPH98DokSbh0+ao2CIOT4I3X5UPjuMbnXbpsZaB1Q9GFmdzhp59+NgLUfxvjCMRwUd+xE6bYHgkdBALIoliubEn9/abDiBXKWPbsAaNJuKaYu1GzsDDT3GMNE0ZbHGFdqplpL268eEGCFDTmcRwGJ3OmDJLno1yatOLYsROa0MXbU3YRNG4xPgeCvFbNm8iEsZ/K6e8CRmLxc8zIIZoJ0hWzPGANJlK4O0L9tG3brmDXjKEzA6OGcObMuRA70lBmUX62bN0uR48etz0aekneTCypU6fUa/fhGnOewnXeMBqINXTm5w8O1pbhovW4oDbWBxMREXnKZ6cplilVXNc8oJe6ecsO2qtr9pyiUYQLwA4ZNjpQ1jVMM6pSqbyeVLv16K+Nf4xWoEGALG1duvaRRV8t0zTuyL7mDUgwgIYAPoe5Tgnvh4YZRsTwWdDgQKZGV7JmyaQN+gULvzY+21KfaqA7jjygsYvGHWD9F9aSFC1e0d7b7g6mImJK4kH/IzJn7kLdn2VKFw+Uwjq8nj1/JrjYN0ZHdu7cq41yx/3hjje+H9JpowGH7zVm3GRN7OCuAYopVVWrVNAkFbimVsfOPXWU1hxRw3GNkYlxE6baOw3Cw4oEHmaCHMe1Sii3SITS8pNOOo3UFZQXrPVDEOc4QoJtsmv3Xtm0eZuWE3S4OELSDUw/xKhZ67ZdZN++g/oawHZF6nYk1MG1xkLDTDyDJDPo1HEUMPoesOYQSTjQIMe+RifPfKP8lixbVa8xFhwc9zj+cazNnD1Pp+16e8ru338/kwe2jIBbjeMX2xTlIaSRW0iVMoVu5737D+q10vAa3DDlGhe0xrpKdCa4g2McCZTgs+mzdDuZ+8MVHHMYAcVx0bZjd92OZp2ObYsZBUgk0qvvYJezC3B5Dr88H+l9fEZ3MyKCg9fgtZAvX16XHTOOkDRk6uczdF/jgtqjxkzyaFSPiIgIfDYYw/QYXJgYDS0EVVjvkCBJSp1SFT/hu/JR3qJy5OhxXcRvwokZUwTRmEIjukDhMhLvjXck9mtvSab3c2sghv83YvgAXVPhDbiOFtYnJXs3g8SJn0w/H94vZdr3jZP0RO1lb9+uldvpTLgOGS52igYOMuklSpraPnUMN/SgWwWN+Tq1qmnwgEAqVbps+pmSp86iWdYyZUqv0wKDg6lZZuCLlOUISnGpAndTn9Bod/z+xUpW1Mdx6YB3UmS0P44LI5uQ/hrBO3Tq2ltSpMkaaH/gljd/Cc3S55gEwhvfD9cpa1C/ljbg8D/SpM+u+9/V5wQkVvh06ACdPonjMVeeInqM4rk4rnPmLiz9BgwLVcPZFyEwxVQ/HM9Yq/R6ouRabps2b6sN75lfTHbZ2EU6cXzvtBly2Mu5uU3KlK+hwW7Xzu2M8hv4MhcY4Rk2uJ+ugdq46VspUaaKvgavxXbNkCWXJtR5HIopc4BgwrwmmDMcsxjtRplGgJA1u5/u6zeTpZNWRqAJnTu11Z/u4H/gsgYYDUISDQRlhQvmdztlF+Xf3Ba4IdEMOnhww33zcUxHNQMCBI2YcotjDHUQtinKg3mc6f/5ML+O6jhfZ8ysjxAcVa/VSF+DGzLF7t13QDPH4vsHBxeuRocX/keN2o3t+wM35+mw+N7djP2KS44gUQe2Iz4rnottizKPNaAXLlwSxwv8m7A9UZ9gf6HOxwhXWOE1eC1GKJFkJSSvvBLTOO4COnEAU+mdrx1HREQUWj4bjAGmdK1Z9bVOO0PjwmzE4RpWCLqmThpjNDgCTylBIwfrTJxfU7hQfn3++jXLvJoYAZ+xccO6eg0hE94T7/351HGy+puvtIHjjpmNccG8LwJ9Xl+BdSXYnlh7gsYdFC9aWLcvtiV6kkOC0T9MTQSMZCCNuDehQYbRBWxnbD9cDgEBOY4TE7Lc9R84PEgSiPB+P7x3nVrVZeO6FfbU7MHB82sbAaD//m16DDseN7iP5C9IklCzRhXbo1EL1k3ie2FqnLn98XP8mOG6nfP55dZrfznDBdJxEWxcI9BxGyLIwtTT3Ts2Su+eXVwGLdiHO7euk9EjB+u+c6wnsD7q4L6t0r1rB30sNMw0966gwb5o/ky9kLj5ORGc4L3xGTAyHxIErPn9ApKJoFwg8Yy34TMVLVpQ7+O4QnlwPNYQ+GBUp2GTVppExIT6aMTwQbq/zP2H79muTQvZYXy/Af176bXGgoOOrjmzpsqk8SO13g0Jnj939jQ9PnDcm9sVP/E7ErksXjDL7Zq6D7K9r8EcAnZ3F/N3B8/Fa/BarJPLkD7o9SmdIWBHnY/nExERhddLfz66FfozF5EPwjXjWrTuqD3us76YrCm7EfSYMF3xyNHvpHvP/troQmO6Vs2qtr8SRS+YNtmz10CdJjpl0hipW7u6xIjxb78bApArV65pVkWM8A0b0k96dg8Y2YuqMDqFaZRx48SVRQtm6jrD0EAg2qhJa72/eOGsMHXUYdQbU+Uxkjh54mif60gjIiLfcOOqv6RM62f7LSifHhkjCg00xDDNqFCBfJIr54eBAjFAQxSNM6zdg2cerCshiiqwlm3Tlm06JbZYkYKBAjFA+UiXLo1edw+i6pRYRxjFa9O6uQZXI0dPCLSW2B0ErWPHTdGEJN26ttesjKGBzh2s9TPXMVarWomBGBEReYzBGEUbSOqCBBjOiTuwlgbZ8bbtCFgXEty0UaLo4sLFy3L02IkgwRZ+375jt6xdt1GDiHy2KZNRGaYOtm7ZVNe0IRnP59NmB5tUA4llvpjxpa7bxMhWpQrlgnTiOEOA16ZdV8meq6AULlZOg96J40faM30SERF5gtMUKcpDD3ePngP0OmOAtSbp06WTl2K8JE+fPpWTp85oQgmsPxo+pL9eSDikhhdRVIVAY9yEKTJ0+Bj9HWshP/ggq67nQyB26tRZvQ4fHh8yqI80a9pQ/xYdYD1o2w7dNbsmUvh3aN86yMggOmumfjZDE5ggEBszaqjLS184QzbHJk0/0UyVSFLTsH5tSZEi+DWiREREIU1TZDBG0QIaoPv2H5QlS1dqpjkk7AA0OP38ckuF8qV1OhGyHxJFdwg4Dh85LstWrNLrd2FaHWAkLHeunFKyZFGpXbNqtAwmkNlwihFsIfumu6y5yPSI7Kcd2rUKVSBGRETkKQZjREREREREFmACDyIiIiIiIh/EYIyIiIiIiMgCDMaIiIiIiIgswGCMiIiIiIjIAgzGiIiIiIiILMBgjIiIiIiIyAIMxoiIiIiIiCzAYIyIiIiIiMgCDMaIiIiIiIgswGCMiIiIiIjIAgzGiIiIiIiILMBgjIiIiIiIyAIMxoiIiIiIiCzAYIyIiIiIiMgCDMaIiIiIiIgswGCMiIiIiIjIAgzGiIiIiIiILMBgjIiIiIiIyAIMxrzon3/+kStXrsmx4yfkzz//sj1KjrCNVqxcI0uWrZQXL17YHiUioqiO50AiorBjMOZFu3bvk7wFSkj+QqXl8+mz5Pnz57a/EOBEvXzFaunQqafMmj1ffvjhpu0vrv1+755UrdFAYsVLKs1atJOHD/+w/SVssB+GDBstSZKllZ279toetcaIUeP1+3y9dKXtEYqqnj79Uzp16aX7s3S5avK///1i+4tvuv/ggUz/Yo4UKlpOP3P7jj3kyZOntr9SdPXs2TPZum2n1KrbROvA3H7F5OKly7a/epe3zoF3f/tdKlapE6GflcLnwMHDWo8433COowDeasNQgMg655rttGwf5peefQaF2Fb1BgZjXnT5yjV7Ybt69br89dffet+X4OAdPHSU9Ok3JNIbYvv2HZR+A4fJe++llc+njpM0aVLZ/uJa7FixJfm77+j9uHHjSsyYMfV+WN28+ZNs275LihcrLDlyZLM96h1Wbk+yVuzYseStt5Lq/VdffVVejRVL7/uiW7duS/OWHaRztz5y/vsLUrCAnyRJklheeukl2zOshUb7ho1bpH6jFnLo8DHboxEnst/PKgjEJk2ZroHN2nWbJF3aNJIhw3vySsxXbM/wrqhwDgwLdJqZQUZIt/9aEIL6r2SJovYbjisKzFttGAoQWefcBG+8ISWKFTGCv6cy2ag/S5atop0PEYnBmBeVLF5EypcrLe9nzSx169SQOHFi2/7iO65dvyEjR0+I9B6an3/+nwwfOU7vjxg2QDJlzKD3I8PO3Xvl8JFjUq5sKUmYIIHtUe+wansShcWGTd/KuvWbpFLFcnLq+H7Z/u1aGTywt57cfAEa7Zs2b5OV36yNlBkFkf1+Vrl46YosXLRUUqZMLls2rhT//dtk8YJZIXaEeSoqnAPJO3J+mF02rF1mv9Uz9jdRdNC2TQvZuH65nDi6T/r37SE3bvwoc+ctkkePHtue4X0MxrwIJ7hVKxbJscO7teeZAqB39ouZc3UKS+uWTSVfvjy2vwTv5Zdfljhx4+j9d95J5tGJHdMENm3eKnly55JiRQrZHiXyjtfixdOfqVOllLhxAo5VX4OpHSdOnJL48V+Trp3bGWXpbdtfKLo7e/a8fH/hojT7uKEUKVwwwkdCo9s5sGrlCvLzzQtubz9ePycd2rfW5779djL9SWTyRhuGAovMc268eHGlRbNGRt1ZQC5dviJ37/5m+4v3MRijCHfy1Bn5eukKKVqkoNSvWzPUQ/WvvvqKJEzwhu03z5w4cVp27Nyj0yhSpHjX9iiRd7yZ9E3bPd+FtZrPn7+QNKlTSZIkiWyP0n/BM9uoX2pj3/vKlNSoBI3nxIkSur2hs2/37n2SP18eKV60sO1VRAG80YahwCL7nIupkJgSiVGxp39G3FIUnwzGzMW7uOH+jz/+JD16D5T0mXPq3OxyFWrK6jUbdMTFGTL0oSdw/MTP9HlYsIzX5M1fwuVCPFSmtet9rM+ZO3+x7dGgTp85J1mz+0n2nAXl3PkLtkfDt4gV2aZWrV4vlarWtX9OVzfnuaq3b9/RbIQNGre0bxP8xO+79+wLlKUQ65iwUN/8X8VKVtTHZ82ZLwmSpLQ/bt7cfe47d+7K2PFTdDvieXi/T9p2Ef9DR4PNiogpQOs3bNFh3tq1qnnce+jJXGts33UbNku8ePGkfLlS2kvlChqr1679oMcHFmya369Fqw6yd++BCNmeYO5/HKd4Lt77s89nBjsUHtb9YJalfAVLaZYzT94zLMw1FviJz4Pj0Uwc8HbyjNK2fTctz648ePhQRzFbtu5o3w94TbWaDfUzB5edDeXacf+5urlKWIHvPXPWPClVtqo+B++HdUTfbt0R7Ps5e/nlGGzsGrDNsO0c6ybcChcrJx0795Rff71le2bguhNlB2UIUKbMx82bq0QOqP+PHvtO12zi/5vPxX2UEZQVR+F9PzCPaRwjOFbwXBw7SIyCshYSrE8rULiM3qLLWrXwnANR9546fVa69ugXqMzXNuqMY8dO2J7l3uXLV7V+wGvXrN2o/y+y4NyGdgg+P0bQMBXUF+AYxfkA5wWzDGL7oH5E28jVNkJZQnIrx+Ma5xiUrYhIXhCWc64J5RHlEgkx0G4z624zIRF+Ll3+TbD1Nl6D75QidRb96a3zXmiEpg1jlgfHfefq5li2wrtdPG3bhfV1jm0DHG8oO2Y7BK9FG99d28CV6HbO9emRsRfPX8guo4IoV6mWTJn6hTboYceuPdKidQdZ8c2aIBULDgQETH37D9XnmWt5Tpw8bV+Ih8JuwhqiUiWL63087mrtD95jx47dWvGXKFFEF0GHFwpMz94DpG6DZnLQ/7Bk/+B9ndaBqUSmvHly6YiO47oOnPCbtmgnTZq20RTx5jbBT/xeulx1mTDpc5eBqqeOf3dST3j9Bw6Xx0+e6GdKlDChBq8Vq9TWBeLu3u+nn/5nVPJ75INsWaVQwXxhLjx9e3eTPx/dkp7dO9keCb0rV6/J9u27pXTJYpIlcybbo4Hhcy/6aplm/8LxcfFiQAMM23Ph4qXG8VI1QiptHGd9BwzV/Y/jFPDe3Xr2N7bzMJfJQMKzH/D4/375Vdq06+LyPYd+OiZMwUdIzpw5p9sNxyMSB+D7/vb77zJn7kKp17CFNgoc4fv27TdUTygLFi2x7we8ZuOmb/Uzo7y42g8otyjX2H/gvJgcjSQsxnVOWIF9jKChgxEkXP/hhj4nffq0uo4IHSTYPyHtd6yTwPE5eeJon1l/ZRVsK2wzbDvHugkQeBz0P6IZHb1lufEeCGqwZtMxsMF9lBGUFefjLDxwjI4YNUGPaQScWbJk1NH+M2fOa2KUmrUbuQzgTPjuk6ZM0wASt9lGMOjteiUqQZ00cfI0KV6qknw+bVagMr9vv7/+DA7W/c2YPU/rB7x2xsy5gYL9iIbzC7IDYwp8FSMY84WG4W+/35MuxrFYpHh5PS+YZRDbB/Vj954D9DmO8Hs3IxguW6GG1n3mdkebCWULdSsazq6COE+E95yL11+4cFk70VF3Yz044Gfjjz+RWcYx4e6zoi2C73Tr9h35bNpM+2sjUmjbMPjMCJpQHrDvcG7HOckxyMd5Dec3JJhw5sl28bRNEZ62yD3jeOvVd7DUqd/U3g7Bvkcbv3O3vppsKjjR9Zzr08HY9p27tacmdqxYukD00f2f5bdb13VBHRp3i79aHqQ3EqMf7du1kp3b1sut/13Wnfb0j1/l2qWT0rxpI93pqMDRC28qkD+vJpTYvnOPzgt1du/+fdl/8JDer1CutMSK9areB0xPwHuYt0EDetn+ErxlK1bpOioklThycKcuqMdt/54temBDvTo19Xtjoayj9O+llWVfz5Prl0/Jk4e/6Ptiu0z7bLwGczNmzZWz577X52KaxWdTxto/H7YLtGzeRO7duWF/3Lyh4nCExBvIFPjLr7/KVwtny8lj+/QzYSE4PmvmTBm1lwbrwVzB9kQj7KNcH0rydyNvmiAqna1GgwmNsfzG/sXcX1fwuXHygqmTx8rtX67odsBP/I4KZvTYSToSif8Z3u1p+nTkOJm/4CsZNWKwvhf24+qVi7Xi/Wb1ejlz9pztmQHCux+uXf9BOzCQtGDsqKFB3nP9hs3BNiTDatyEqbrdGtavLd+fOaJlED9xvOPksHTZqiCJExInTiSzZ06Vi+eOaVnH9nv4+0+yctkC/YyLv14ue/butz07wC9GgDly9ET53ajgv5g2UY7679Ltgp8Tx43Q8oC55TOmTwyUsALlf8iwUUaj76A+78wJf12wu2fnJvvnxIihud8pZEifjm2G+gvHpLkPcZxhfc2sGVPk7WT/jow71p0oOyhDgDJlPm7ejvjvlAzpA2dre/WVV7S+Pbhvq73s4b1OnzhgP84WLFxiz+gXnvfDMfDVkuUy7NMx0qBeLTl70l/r6y0bv5HLF77TcxJGiEaPmRTo3OIo5ssx7esdIP7r8aNFdjVPz4HfrFqndRZmSyz9aq6ew/B6lHkcPwhygoOeccft+Vr8eBIrkhpnOB42bdqqoxg43n1hCjw601Dnol2BRvvcOdMCbdOjh3ZJ7o9ySowY/waNaDBPMgJivAb7ceumVVpuUV+jHm7RrLG2mQYNGWmck87bXhU+YT3nOsOIKTrRbtz8Ub8jyvKD337U+h/1/dr1m/S84ApmyZgd3rj/2mv/Hj9WO//9RRk5aqIkTJhAz8uo13BOOn54j/To1lGfg077rxfP0QQTzsK6XTxtU4S3LYKOK5wnunRqKz9cOa3HmlnekWQK7fD/Ip9fM4YdtHD+DK3wcOJCo7pRgzr6OA6Ku3cDT0XBaNL4McO1Ynnj9df1MfRYYdE6eibwugsXLgU6KDHShREvPIZeducK4Pz5i7ruCL0UWbO4HmEJCwSS5uhcByNwdMxslTFDensjARX948dP9L4J89Qnjh8pVSqX15NYjBgBuxDbpWH9OtK4UT2tPB2nUnoK2wEnTBSq9m1aSvVqlezvh22KAKtbl/b6fdBz5mo0BwvIAd8xrm0ha2RAD+mWb3fo/naXuAONpnlGQITPP37cp8Z2byyvx4+vf8NP/I7HAd8vNNOQQuvRo0cyZdIY6dThE30vbNfixvGFbHc4DpEi2uSN/YC/IfiZ9+U0XXBuvicW9ZcsXlRHfb83TgbeNKBfTyNwDbiEAT4nfvbr002SJXtLeygxampCkDtkUB8t26lSpbA3UjHnvkL5Mvq98R2+O3FKHzeh0wGdNpWN7VazehV7Rwl+1qtXUy9nsMcoa85TbXbv3i9r1m3U8tLcaHA4drA4fk5v73crYJ77jz/9rNv05Riup+p6w7nzAR1AlSqU1WPS3Ic4zlBv5ciezd4Q8oYa1StrZwc6q8yF8XgvBFHm/kMd+vCP8Gc6RZ26aPFSrU8G9u9lT68MqHvbt2updTKOKYyUuYLnIVBp1eJjvXU1GiOOx11EuGk0zCCmmynaVkEdN2/+V9ognjpptFStUkG3D6DMp0mTWt54I+D87Q46XlGX4RhAgNyvT3evZ8t1B/XJim/WaidurZpV9bNY7cDBQzLny4COq2lGvYv12Y7bNNv7WfT4c9xGqD+xnhszV6Z/PkEKFy6g5Rb1NerhMaOGaic2OjXRYecqOAoLb5xzMXL3jtH2mf/ldP2OKPsoR6h38nyUS0dtbtx0Pd0Ns3OmTR0vlSuV007JD3N8YPuL9fYfOKTbuW7tGlK6VHH7OR51JoJi1D3njXadu2trhWW7eNqm8EZbBD4dNkCGD+2vdTRelytnDuP8XVn/hrZIeI8zb0KSEHToYjT1jz8e2R71voCt6KOwo4YN6RskDXr81+NrRY2emrt3Q99QMl/nDAds4YL59T5GwDASZkIDFj2+OLjKlC4e6CTsqb/+/lt3LCpAVz1qSW0LFG/++JM8eer6YHYF3yNJYu8t0EfFie2B64IVL15EC42zzJkzaBpjXFMGAYYj9EjfNBqBkCJF5M6nx3RVNNKD67VEod+776BmyilWJGimMfyOx/F3NOpu3PDe3HlUWLWNk7hZkYHj/rt27br+hPDuB9OQQX21knd8PQJkc/uYi/29ASdw9HyZjWQTkkhkzZxJyy6mTYYGPm9SN+UO5QiwbZwb+rjGS9I3bWXJdhwCjss9+wKmJDuPdJvMz+mqwycqwdz9/fv9NYjFCS8iMym+advWWKeJa5lZeUJFPZ/0zSS238Lv9JmzOvKFaYmu6hNMG8r2flY9pq46lF1nyZO/K1Mnj9Eb7kckrBFFRwTOM9mzv2971Deg7kX9XKJYYeO4/ND2aNglSphAA4wvZ3+uowaRAcf1mrUbdOQVAXiG9Olsf7EO2inoMMbxh05ZzAYJDSQfQUdD2TIlJf17Qb8Hgjl0egDOge5GfUPLG+dcs13oPGMIgX3atKl1GzjPujAh0MTa9eVL5utPs8PIF9y+HTA9L0uWTEGC+9C0ecOyXTxtU3ijLYK2QZvWzQNte8dzPDrSkQHYV6ANg0GYgA6kxbodI4JPB2M4mXrSeMBw/Z49+2XYp2N1DUqFyrX1Vr9hc7eLgv3yfqQjX6jQkIHPhGQZh4yGPQ70QoXyuzz4wipmzJe14YjKBhckdmbOmU1nFKB4cePqfUc4GWBK2bTps6XRx63t3w83LI70lju378r16ze0cHTu2jvQ+5g3JGT4wagwb9+5Y59rbkLBf2Ib2Uthu/BhZMBcc1zQFfssuMQdaGijgKEnPYGbHlU8jr/jeXi+tyC7WWhPBOHdDyb07rg6fs057c7XiTEXBmOBratbcMda8uTv2HtlHYV0wsQ2xrxzJPFw/H6YSuNKfNs0E5zknStJjAjdMk5wKGtp06S2PWocH48fyaVLAdORMVXR8X3MG6Z7IIAJa4ePr1i3frN+j+y5CkqN2o11PSpmBjgHx95UpVI5HdnFBdZz5Cok1Ws10qlGqEMjCso6kr5g2ozj/mvTrqtOzfUWc6bBaqMRXrlavUDvhRuS5GDqOXiz0yaskBQBxy6SmGT5IK/2oo8YPtBlQ9tKZucIRsB8aapYaJijYji/VKpY1ica9H8Yjd7LV67qfZT10IzUOXaWugoATOh8QECPY+n+vfCt+fTGOddduxB1m7mEADOjohpzyu25c98HOTc+fPBQ7t9/oIHWW26yCYZlu3japvBGW8Rd28CXYQZNn15d5aslKyRD5lxSpnx1XdfozaDRp4MxT6BRVr1WQylVrpoMHzFWT9RoHOC2a/c+tw1VjHgVKpRPG3ToTTQLgzkNCkkgMIXQGzAcb64Lm/r5TD2BmjBMPX3GHL3v55cnyAJFND4wfztbjvzSpXtfWbZ8lf374WYuhvWG5y+e65xybBMsqHZ8H/OGxyOqp8BTmC717badwSbugIdhHHIO6/O9Jaruh5D89tu/1+zA90NGug9yFtCMTEji4fj9sJjcFZycMFqB+fBI6GMmIcHPRYuWaoY1TMVM6zAV+MWLf+yLi5HswfF9zFtwdUVUgMYZvgfqA0wPROPmNS9OEXQFI/ozv5gsQwf31alSSKyAREPJU2fRReUIbr05WobR76IlKmiHG5IWOe4/b5cH83jB9nR8H8ebN+teT/397G/9HDiusQ8wWof94o1ORG8yR/6jWkY0HL+YrodRMYwYfZDNN0Ycnz17bj/e44Ty2kuOnaWhgbZHeFN7R5VzrhWKFSuss8DQgYUEQWZGQuzX6TO/1GPOW7MbPG1TRNe2SEgwewbn0dy5cmq7AO0DZJP05vksWgVjqCyw8BMHRJ3a1XWRtZngAjcsIi9lNNBdwQkBARJ6u/Yf8NfRKTToNhgNCsC6FW9F83gvv7y5dSgXwWLufMWkROnKeitYpGzAfNx2rXQdjDP0vuI7oqdq3eolujDX/H64hXbxdFjgvbAo3vF9nG+uFtjje+JkC47TxCISTjAbN23VXrWQ9llo1lGgsJmBuTenPXnC0/3gKfwf/D9X74Ob80haaDhuz0SJ/p1Si6krAwZ/qouXHReem7d5XwZkSnSGhmahgvm18kcQ95FfUe2dw8/uvQboQvYuHdvIm272navkDc63qNjLamac+uWni1KxQlldUD1w0Kdu5/B7C6aN9erR2ah7D8m+3ZulY4dPNChAUIyAbJ+xn70B5XvosNE6uwDTYZGgCQvBzX2GcoLy4m2oX833cHdzl7QnMphlFucFJKbZf9Bf04V7MzmPNzgm3ohKMKVv5aqAUbHqVSq6nOJstRe2+jUkjufn4KDORmCAujn+a+Hr0Ilq59zIhJkrmKGFYwwdTLgcTfmKtSRnnsI6MwTnoY4dWnt1doOnbYrIbotYDevkkAAN68nNcw1GG725L6JVMIa5+gf8D+tCx6GD+uq8Vsc1OSHBKApGU3bv2S/Hjp/QYfkjR45LPr/cQebhhgcaRBgFwPxbnLjz+eXRCyPjhvtLFn8pI4YNDBJIoMFpJv7AYmWs/8HCXE88fvzY3tvrTuLEiXXEENN97twJ+5XHMar3rm16ormQPKJh2ieCcUw5RcUWnJQpU+gUNjRU7t0LnO7XhN4PrH/BsWSu5XMlNNvTU+HdD77k/v37mhIalbl5AWKceM31DlgUjEAitB0f/v5H9HpR6Hxp17alPob9D52MIGz96qVSsGA+/d1kLsgFTKeIzrBYv03rZloeUKd5c6ptcFAvIXMbFskfPrhDWrf8WBsZS5evCjEgfPIk5N56c8YC1uz06tlZe4s9HWEJzfthOh38/PMvER7QeoOZ+KZxw3oasJ48ecb2F99gXrjV3fqQc2fPy4WLl2y/+QYECdt27NK1g2gnfOjFNkF4YTkDljUAyjk+a0gcz8+upsaZMKUb07WTG899LZzBmDfPudHN+o1bNLkJ6sqmTRroCAzqOGSXRLILrHPzVnDjaZsiOrVFQgv1EwZosMSiRfPG4TrXBCdaBWNozGGaIqJV5x4r9OzgmmXBVfBoAJoLX3cbQc+hI0d1aLhY0cJGpeW9he+Y271z917NYoeUpRjhuvPLVb3hfrWqrnvczMQf4JysAPDdkJEnOHgdKrlLxna6ezf4wpTgjdc12xC269JlK3XkMayyZM6oP5GpD/8nomG7Yp+FJtlKqpTJNcsQgu+du/cFOYHh963bd2pq/vxGkOy47sgUlu3pKW/sB1+xy9jW2N4Y8n/3nYCGANYuIDU9xDUqPOeKDg02XKbAGRoPW4zHMUrSqnkTmTD2Uzn9XUBvHX6OGTlEM4I5Q/2Q3Xh/wHV1QrquibchaJ81Z4FeDBsZpyIqiDeZ6/TwPphmEtkQENatU1PvI6ujq6lOCB7Q8w64Rl1IjUmzHsQIC1LGO8KMhm3bdmmDwZ2wvh9mMaCcb9m6XY4ePW57NOxwUdMOnXrqxW7DcoFTT6Ac4TODN5PzeEPGDO/p6NLx705p+XWEqfp9BwzT4D0kuEbWkGGjdY0gAoaIhM5ZLAtAnV+/Xq1QdxgB2iXNWrSLsP2OwCqHLTMg1rOFNpBFhwm+z+Yt21xe1gcdxrjgPmDNvKt2R1h445wbHqgDsQ/rNWweKXVvaOHcjnMc6hl0KiId/aXzx/VcdujAdm0n4jqZ3uJpmyI6tUVCC8fk8+cvdJQ2Ite3RqtgDD3t6HFHCs+Nm7dqDyaCMPSiIiEArlkWUgWPNOgYWUPghmvUhJQEwhNIV48GJk4eh42AD+lbQ5My07FHH41I8ySGBfJYM1G0eEX7qIA7SIePCg4By5hxk7Wn3F1DBN8ZKYcxzQjXIenYuad+ZrMCQyMa2xbXlDIrbGfvZ82i2/PY8ZOaHTIi4erzmPaJedelnLIGuoJgrUaNgExRg4aM0IQUZuWCk9DUz2ZI/wHD9fs3bljX5ck3LNvTU97YD5Ht/oOHgUYQUA6xbzBdDt+j6ccN7dszoIc2oLMDiVfQcME2xD6Yv/BrvQgorjHm7O+/n8kD20WEtxrH/U9GQx/HQGhOsOjZxrQPXNekddsuOn0O2xHweizSnzlrnl4PxdswUoH1rLgYNqY+YIpmVIdth3UOaEjj4sZmGcB+x5pYXFMPcCI3U1k7wjGOJALw2fRZehyY+8OVVLYe9r37D+q157DPcMN6BVwgHOtpg+v8Cev7oUca0z1x/mjbsbselzjWAN8VdTiOb1zM1N2lEFC3IHCYOXueXux2wuRp9jWO/zWY7oPre5r1JkZDsP9w/mrUpLXONMCMlOCgMwZ1NOqUL+ctkqHDR9v3ibdhH28yApZdRgCBGSk5cgR05oQGjitc2xR1GPY7joGIaMSWMT4X1s9imzZv2UG3pVkH4zOcPnNO39txG+XKlUOqVCqvdVK3Hv0FFyPHfsD3Rbnt0rWPXqAZiXmQeTa8vHHODQ/UtW07dNNpZ5269g5yqRSrPHv+TDsWMFNj58692kGI/YT6MyJ42qaIim2RqCJaBWNoFGO6Ek7CyOiSIElKiRM/meTMXVgrFFyLpHwIFQoyB6FCQ+WEygzXLTN7F52homvfsUegDHOo7AA/HR/H1AZThgzppGL5slpplilfQ95JkVESv5XG/twkydJKpap19WB2PFmjR79OrWpaEObMXSip0mXT52OBPLKJZcqUXoe4g4Pr/TSoX0sbMvgfadJnl9ivvWV/b5zYHGF65qdDB+hQObZhrjxFJN4b7+hz4yd8V7dtvwHD7IXRGYKV3LlzaiMNPT9mIy0iIAumXg+uRBG9dlxIEKzhmh5Y44JGVtPmbSVR0tT63d5Mlk569B6oz8P3d57qZgrr9vRUePdDZMMc9xRpsug6SKzhQlY/zIN/+vSpjB01LFBDC/sBo8EI2tGgzZrdT7ch9kGrTzrpczp3aqs/HSGIQ8MI22TUmImSNkMOSfZuBvt2wS3bh/m1N9r5OmMYMRs2uJ+uKUOiiRJlquh2xGvw+gxZckkH40TzOBRT2MIqcaJERl0VkFAEddWRcIy0+Ao0jBFcZs9ZUJK+/Z69DKD+zfR+bp1+gwsxt2jWSE/oriDNORp9KIvIAGnuD9yQ1dNx3RPSmKM+x3ORtRH7DDccb3v3HZBPWjXV4yk4YXk/zFTo1rmdJm1AggwclzjW8Fx8V9ThOL5xDUvHi+o6QoMLiVVM94zG119/Re1gzNNzoE6fbdXMfi57N1Vm3X+oK2LHji2TJ47WjrzgoLc60Pa8d1+eOnQAeRM6T1euXKv3a9esFqbrmb3ySkxJ5XBpFzRenUcDvQHTp0aNGKydTAiqsC3RBsK2x7H9Ud6iWtcggZEJHSPIEof18mjvFChcRvcDjmmUW5xr8P9GDB8QaMqgp/vdG+fc8ECqdbOTBvvgwYPwper3FlwaA8E0IEhMkSar1i+oP83tmDd/CRk7fop2XHiDp22KqNYWiSqiVTCGFLMd2rWWBfO+kMKFAq4bhgMGJ+1tm1fr1d3fDSETDRoKuFCsORyPBkRYKt7QQMGrUL60DnviZIT1HLjhPqCyQC8zeninfj4j0EGNCmrZ1/M06MR3g+JFC+uw9vo1yyRfvuCvL4LKsE6t6rJx3Qqdl2y+pzt4Pq7Hgauro9JGcGrC/cEDe+tCzpo1qtgeDQyNGKwBwggj0kKjAo4ICFpxfSPARQ5Du7AaPW/4Djg+cMFhc3ugkY41R/je+P7YDq6EdXt6Krz7IbLhGkqvxHzFnnEJo7r4jDu+Xas9a87bE6OZi+bP1ItbmtsQjenRIwfLzq3rtPfWFTynaNGCeh/bAY0Kx22DhjN6oxs2aaUdAo5QlvC/8R4oQ2aZxxRK7PuD+7ZK964d9DFvQiDYtXN7+/tFB6g3McUbxyi2nwl1FAKYhfNmyOIFs+xrVFxBY2/OrKkyafxIe/3tDsrtiOGD9AL/5vvhuGnXpoXsMPbpgP69QrxocFjeD/D8ubOnaf2LcmYep/iJ31cuW6Df0d354o3XX5fOHdvqhVFxa20EI9HpGAgr81yG4wPbAduxd88usmrFIs0aFxJMNW3d4mPtYEV93a5NSz3PRASMiplrFIsUKWB7NHRQ1zVoUNt+va6IhJHnNau+1vYAOqoc6zScN6ZOGmOUycDHJzqbsR+cX4MygeejXeHNRAzhPeeGB5acYDug7YWfSKTmC/Bd0YmMTiZsf1yeAOcyx7oUGYX7Dxwun7Tr6pWp9Z62KTx9HQXvpT8f3Yq4oQpyafuO3dKwcSspYBS4KRNHBUlVil6nr5Ysl159Bun1YdBITZcu5JEeX4VAaeCQETpagh6xgf17ev3aLLgOUL0GzSVjxvdkxvRJXg+gKXQw7eTjZm0061xEZ5XDtJaevQZqSvspRqOhbu3qgRL2YBQWF75FVkWMuA0b0k+vteULMOrSoFFLHYFHIx5T4CIK6pMexjY4dPioLF44K9pkuKKQmeUR2Ug9yX5K3oNZEhg1ql6tkgY+CM6JAOsRW7TuqOeFWV9M1suxOAajmK545Oh30r1nf51RhTZhrZpVbX+liOSt8+eNq/6SMq2f7begotXIWFSAObWbv92umXLKlC7h8poRmI6InhGsi8ComBWL7r0Jo1QtmzXWUYxpX8w2GsbbbH/xDjS6MQUSIx8RMZJJvglry9BjjWkTxYoUDJI5FSczdGKYvey+Mm0CQeTSZas0EENvOTplIgPe79avkZushHyDuQ6TIh8a0rjuG857GPWoX7cWAzEKBBkwMYOkUIF8xvnqw0CBGODclu39LJrgA3wtIU90hqmtV69e1wGEl2N4L3eEMwZjFjpsRNqu5o7jsbnzFuvccgxTm1nnojJMhRgxbIBmMMOCbSRZ8RbM59/y7Q4N9pCAhf5bLly8LEePnQgSbOF3jEKvXbdRG0G4bISV1q3frGua0qbPrgk8ML0Kl+CI6M4DdO5kSJ9O7yORAMoL/TeYWQtXrFyja3cYkEUeJGBAlkesly1crJwGxLhkTbmyJW3PIAoMSVaQAMM5cQdGZ7DMA5dWwJR+TGekiIdZXV8vWaFTlBEIR9Q0aOA0RQugwCHNLXqqAQGXmbYUizMxNxjQWMN1etwlEIlq0BBYuvwbXfiLlPfz5kzXlNsUfUTmNEVUlOMmTJGhw8fo71if9MEHWbUHC4HYqVNndQQajw8Z1EeaNW3o9emxYYFt07VbXylWrJAmAcDIOAKlyIA1Bm07dNfskQhMcTLHxbKxRgeJUCh6QjmYNGW6LqgHnGtwPhk+pL9mNKSIg6yaTZp+otmOMWOjSaN6kjp1yiCjHkSYLdGj5wBNdARYR5c+XTp5KcZLmvTq5KkzmksA6+pQditXKsfjKAJNmz5b1m/YIpeuXNE8B9gfX878TC/v4KmQpikyGLMIKupVq9fp1IVTp8/YE1ugsPnl+Ujq1qkhBQvkC3UiiqgCPT5Lln0juPI/GqSsUKKXyAzGAMfT4SPHZdmKVXr9J0wHAgQcuXPllJIlixrHWVVJ4ZDN7L8KHT1z5y/WURJ0+LRs3kTGjh4WaQEhWQOdFsgYivTvB/0PS5rUqbh2kMjHoJzu239QlhjnUHTUm53y6Ez088utSd+qVa2kGZwpYpnrO9EeL5jfT9p80lyniYanvcpgjIiIiIiIyAJM4EFEREREROSDGIwRERERERFZgMEYERERERGRBRiMERERERERWYDBGBERERERkQUYjBEREREREVmAwRgREREREZEFGIwRERERERFZgMEYERERERGRBRiMERERERERWYDBGBERERERkQUYjBEREREREVmAwRgREREREZEFGIwRERERERFZgMEYERERERGRBRiMERERERERWYDBGBERERERkQUYjBEREREREVmAwRgREREREZEFGIwRERERERFZgMEYERERERGRBRiMERERERERWYDBGBERERERkQUYjBEREREREVmAwRgREREREZEFGIwRERERERFZgMEYERERERGRBRiMERERERERWYDBGBERERERkQUYjBEREREREVmAwRgREREREZEFGIwRERERERFZgMEYERERERGRBRiMERERERERWYDBGBERERERkQUYjBEREREREVmAwRgREREREZEFGIwRERERERFZgMEYERERERGRBRiMERERERERWYDBGBERERERkQUYjBEREREREVmAwRgREREREZEFGIwRERERERFZgMEYERERERGRBRiMERERERERWYDBGBERERERkQUYjBEREREREVmAwRgREREREZEFGIwRERERERFZgMEYERERERGRBRiMERERERERRTqR/wOJuXfc4nK3wwAAAABJRU5ErkJggg==;" vertex="1" parent="1">
                    <mxGeometry x="12" y="12" width="460.31" height="103" as="geometry"/>
                </mxCell>
                <mxCell id="82" value="Pass page props using navigate" style="whiteSpace=wrap;html=1;aspect=fixed;fontSize=17;" vertex="1" parent="1">
                    <mxGeometry x="10" y="98" width="101" height="101" as="geometry"/>
                </mxCell>
                <mxCell id="94" style="edgeStyle=none;html=1;exitX=0.5;exitY=1;exitDx=0;exitDy=0;entryX=0.5;entryY=0;entryDx=0;entryDy=0;strokeColor=#000000;" edge="1" parent="1" source="84" target="93">
                    <mxGeometry relative="1" as="geometry"/>
                </mxCell>
                <mxCell id="84" value="&lt;font style=&quot;font-size: 17px&quot;&gt;APP&lt;/font&gt;" style="rounded=1;whiteSpace=wrap;html=1;fillColor=#6d8764;fontColor=#ffffff;strokeColor=#3A5431;" vertex="1" parent="1">
                    <mxGeometry x="-655" y="38" width="120" height="60" as="geometry"/>
                </mxCell>
                <mxCell id="86" style="edgeStyle=none;html=1;exitX=0.5;exitY=1;exitDx=0;exitDy=0;entryX=0.5;entryY=0;entryDx=0;entryDy=0;strokeColor=#000000;" edge="1" parent="1" source="85" target="60">
                    <mxGeometry relative="1" as="geometry"/>
                </mxCell>
                <mxCell id="87" style="edgeStyle=none;html=1;exitX=0.75;exitY=1;exitDx=0;exitDy=0;entryX=0.5;entryY=0;entryDx=0;entryDy=0;strokeColor=#000000;" edge="1" parent="1" source="85">
                    <mxGeometry relative="1" as="geometry">
                        <mxPoint x="-716" y="513" as="targetPoint"/>
                    </mxGeometry>
                </mxCell>
                <mxCell id="88" style="edgeStyle=none;html=1;exitX=0.25;exitY=1;exitDx=0;exitDy=0;entryX=0.25;entryY=0;entryDx=0;entryDy=0;strokeColor=#000000;" edge="1" parent="1" source="85" target="63">
                    <mxGeometry relative="1" as="geometry"/>
                </mxCell>
                <mxCell id="85" value="&lt;font style=&quot;font-size: 17px&quot;&gt;SideBar&lt;/font&gt;" style="rounded=1;whiteSpace=wrap;html=1;fillColor=#fa6800;fontColor=#000000;strokeColor=#C73500;" vertex="1" parent="1">
                    <mxGeometry x="-920" y="387" width="120" height="60" as="geometry"/>
                </mxCell>
                <mxCell id="89" value="&lt;font style=&quot;font-size: 17px&quot;&gt;Index.js&lt;/font&gt;" style="rounded=1;whiteSpace=wrap;html=1;fillColor=#6d8764;fontColor=#ffffff;strokeColor=#3A5431;" vertex="1" parent="1">
                    <mxGeometry x="229" y="137" width="120" height="60" as="geometry"/>
                </mxCell>
                <mxCell id="90" value="&lt;font style=&quot;font-size: 17px&quot;&gt;Page 1&lt;/font&gt;" style="rounded=1;whiteSpace=wrap;html=1;fillColor=#fa6800;fontColor=#000000;strokeColor=#C73500;" vertex="1" parent="1">
                    <mxGeometry x="-596" y="386" width="120" height="60" as="geometry"/>
                </mxCell>
                <mxCell id="95" style="edgeStyle=none;html=1;exitX=0.5;exitY=1;exitDx=0;exitDy=0;entryX=0.5;entryY=0;entryDx=0;entryDy=0;strokeColor=#000000;" edge="1" parent="1" source="93" target="85">
                    <mxGeometry relative="1" as="geometry"/>
                </mxCell>
                <mxCell id="96" style="edgeStyle=none;html=1;exitX=0.75;exitY=1;exitDx=0;exitDy=0;entryX=0.5;entryY=0;entryDx=0;entryDy=0;strokeColor=#000000;" edge="1" parent="1" source="93" target="90">
                    <mxGeometry relative="1" as="geometry"/>
                </mxCell>
                <mxCell id="97" style="edgeStyle=none;html=1;exitX=1;exitY=1;exitDx=0;exitDy=0;entryX=0.25;entryY=0;entryDx=0;entryDy=0;strokeColor=#000000;" edge="1" parent="1" source="93" target="51">
                    <mxGeometry relative="1" as="geometry"/>
                </mxCell>
                <mxCell id="98" style="edgeStyle=none;html=1;exitX=1;exitY=0.5;exitDx=0;exitDy=0;entryX=0.5;entryY=0;entryDx=0;entryDy=0;strokeColor=#000000;" edge="1" parent="1" source="93" target="49">
                    <mxGeometry relative="1" as="geometry"/>
                </mxCell>
                <mxCell id="93" value="&lt;font style=&quot;font-size: 17px&quot;&gt;Conponent&lt;/font&gt;" style="rounded=1;whiteSpace=wrap;html=1;fillColor=#6d8764;fontColor=#ffffff;strokeColor=#3A5431;" vertex="1" parent="1">
                    <mxGeometry x="-661" y="166" width="120" height="60" as="geometry"/>
                </mxCell>
                <mxCell id="101" value="P2" style="whiteSpace=wrap;html=1;aspect=fixed;fontSize=17;" vertex="1" parent="1">
                    <mxGeometry x="-297.5" y="465" width="61.5" height="61.5" as="geometry"/>
                </mxCell>
                <mxCell id="104" value="P3" style="whiteSpace=wrap;html=1;aspect=fixed;fontSize=17;" vertex="1" parent="1">
                    <mxGeometry x="-96" y="460" width="61.5" height="61.5" as="geometry"/>
                </mxCell>
                <mxCell id="105" value="P3" style="whiteSpace=wrap;html=1;aspect=fixed;fontSize=17;" vertex="1" parent="1">
                    <mxGeometry x="-96" y="546.5" width="61.5" height="61.5" as="geometry"/>
                </mxCell>
                <mxCell id="106" value="Text" style="text;html=1;align=center;verticalAlign=middle;resizable=0;points=[];autosize=1;strokeColor=none;fillColor=none;" vertex="1" parent="1">
                    <mxGeometry x="40.5" y="485.75" width="40" height="20" as="geometry"/>
                </mxCell>
                <mxCell id="107" value="&lt;font style=&quot;font-size: 17px&quot;&gt;Title&lt;/font&gt;" style="rounded=1;whiteSpace=wrap;html=1;fillColor=#0050ef;fontColor=#ffffff;strokeColor=#001DBC;" vertex="1" parent="1">
                    <mxGeometry x="-428.5" y="536" width="120" height="60" as="geometry"/>
                </mxCell>
                <mxCell id="108" value="&lt;font style=&quot;font-size: 17px&quot;&gt;Title&lt;/font&gt;" style="rounded=1;whiteSpace=wrap;html=1;fillColor=#0050ef;fontColor=#ffffff;strokeColor=#001DBC;" vertex="1" parent="1">
                    <mxGeometry x="-230" y="614" width="120" height="60" as="geometry"/>
                </mxCell>
            </root>
        </mxGraphModel>
    </diagram>
</mxfile>